<svg aria-hidden="true" style="position: absolute; width: 0; height: 0; overflow: hidden;" version="1.1" xmlns="http://www.w3.org/2000/svg" xmlns:xlink="http://www.w3.org/1999/xlink">
<defs>
<symbol id="icon-logotype-header" viewBox="0 0 167 32">
<path d="M28.544 24.312c-2.605 0-4.717-2.099-4.717-4.687v-19.273c0-0.195 0.159-0.352 0.355-0.352h3.857c0.279 0 0.506 0.225 0.506 0.502v23.81z"></path>
<path d="M49.073 23.81c0 0.277-0.226 0.502-0.506 0.502h-3.672c-0.279 0-0.506-0.225-0.506-0.502v-1.285c-0.441 0.674-1.154 1.18-2.104 1.551-0.916 0.371-1.765 0.54-2.511 0.54-2.138 0-4.004-0.742-5.633-2.259s-2.444-3.507-2.444-5.935c0-2.428 0.815-4.384 2.444-5.901s3.495-2.293 5.633-2.293c1.493 0 3.529 0.573 4.615 2.091v-1.251c0-0.277 0.226-0.502 0.506-0.502h3.672c0.279 0 0.506 0.225 0.506 0.502v14.742zM37.772 19.119c0.814 0.708 1.731 1.045 2.783 1.045 2.036 0 3.835-1.484 3.835-3.743s-1.799-3.743-3.835-3.743c-1.052 0-1.968 0.371-2.783 1.079-0.781 0.708-1.188 1.585-1.188 2.664s0.407 1.989 1.188 2.697z"></path>
<path d="M59.396 18.343c1.12 0.303 1.561 0.674 1.561 1.349 0 0.776-0.848 1.281-1.934 1.315-1.042 0-1.944-0.604-2.24-1.349-0.1-0.252-0.317-0.472-0.59-0.472h-3.408c-0.283 0-0.514 0.232-0.485 0.512 0.146 1.42 0.787 2.592 1.971 3.467 1.324 0.978 2.885 1.45 4.615 1.45 1.833 0 3.428-0.438 4.785-1.281 1.391-0.843 2.070-2.057 2.070-3.642 0-0.944-0.136-1.821-1.527-3.136-0.679-0.641-1.595-1.146-2.783-1.45l-2.681-0.708c-0.882-0.236-1.358-0.607-1.391-1.18-0.034-0.708 0.611-1.18 1.663-1.18 0.96 0 1.52 0.308 1.718 0.906 0.085 0.257 0.295 0.476 0.568 0.476h3.443c0.283 0 0.513-0.231 0.488-0.511-0.138-1.529-0.774-2.673-1.907-3.434-1.256-0.843-2.783-1.281-4.581-1.281-1.663 0-3.088 0.472-4.31 1.383s-1.833 1.922-1.867 3.102c-0.034 0.978 0.034 1.517 0.543 2.596 0.543 1.045 2.002 1.956 4.208 2.529l2.070 0.54z"></path>
<path d="M76.362 19.692c0-0.674-0.441-1.045-1.561-1.349l-2.070-0.54c-2.206-0.573-3.665-1.484-4.208-2.529-0.509-1.079-0.577-1.619-0.543-2.596 0.034-1.18 0.645-2.192 1.867-3.102s2.647-1.383 4.31-1.383c1.799 0 3.326 0.438 4.581 1.281 1.133 0.76 1.768 1.905 1.907 3.434 0.025 0.28-0.205 0.511-0.488 0.511h-3.443c-0.272 0-0.482-0.219-0.567-0.476-0.198-0.598-0.759-0.906-1.718-0.906-1.052 0-1.697 0.472-1.663 1.18 0.034 0.573 0.509 0.944 1.391 1.18l2.681 0.708c1.188 0.304 2.104 0.809 2.783 1.45 1.391 1.315 1.527 2.192 1.527 3.136 0 1.585-0.679 2.799-2.070 3.642-1.358 0.843-2.953 1.281-4.785 1.281-1.731 0-3.292-0.472-4.615-1.45-1.184-0.875-1.825-2.047-1.971-3.467-0.029-0.28 0.202-0.512 0.485-0.512h3.408c0.272 0 0.49 0.22 0.59 0.472 0.296 0.745 1.198 1.349 2.24 1.349 1.086-0.034 1.934-0.54 1.934-1.315z"></path>
<path d="M91.815 8.228c-2.342 0-4.378 0.776-6.075 2.293s-2.545 3.473-2.545 5.867c0 2.394 0.848 4.384 2.545 5.935s3.733 2.327 6.075 2.327c2.667 0 5.067-1.092 6.588-2.973 0.174-0.215 0.118-0.528-0.109-0.688l-2.994-2.106c-0.235-0.165-0.558-0.099-0.746 0.118-0.665 0.769-1.578 1.164-2.739 1.164-1.052 0-1.968-0.337-2.749-1.045s-1.188-1.619-1.188-2.731c0-1.079 0.407-1.956 1.188-2.63 0.781-0.708 1.697-1.045 2.749-1.045 1.16 0 2.073 0.394 2.737 1.162 0.189 0.218 0.514 0.283 0.749 0.116l2.993-2.132c0.227-0.161 0.28-0.476 0.103-0.69-1.549-1.877-3.947-2.94-6.582-2.94z"></path>
<path d="M117.93 23.776c0 0.277-0.226 0.502-0.506 0.502h-3.672c-0.279 0-0.506-0.225-0.506-0.502v-1.285c-0.441 0.674-1.154 1.18-2.104 1.551-0.916 0.371-1.765 0.54-2.511 0.54-2.138 0-4.004-0.742-5.633-2.259s-2.443-3.507-2.443-5.935 0.814-4.384 2.443-5.901c1.629-1.517 3.495-2.293 5.633-2.293 1.493 0 3.529 0.573 4.615 2.091v-1.251c0-0.277 0.227-0.502 0.506-0.502h3.672c0.279 0 0.506 0.225 0.506 0.502v14.742zM106.63 19.085c0.814 0.708 1.731 1.045 2.783 1.045 2.036 0 3.835-1.484 3.835-3.743s-1.799-3.743-3.835-3.743c-1.052 0-1.968 0.371-2.783 1.079-0.781 0.708-1.188 1.585-1.188 2.664s0.407 1.989 1.188 2.698z"></path>
<path d="M138.728 12.78c1.493 0 2.613 1.146 2.613 3.136v7.894c0 0.277 0.227 0.502 0.505 0.502h3.673c0.278 0 0.505-0.225 0.505-0.502v-8.433c0-4.687-2.273-7.149-6.108-7.149-2.003 0-3.598 0.944-4.752 2.799-0.882-1.855-2.579-2.765-5.090-2.765-1.765 0-3.428 0.978-4.14 2.596v-1.791c0-0.277-0.226-0.502-0.506-0.502h-3.706c-0.279 0-0.506 0.225-0.506 0.502v14.742c0 0.277 0.226 0.502 0.506 0.502h3.706c0.279 0 0.506-0.225 0.506-0.502v-7.826c0-2.259 1.154-3.203 2.749-3.203 1.459 0 2.579 1.146 2.613 3.035v7.995c0 0.277 0.226 0.502 0.506 0.502h3.706c0.279 0 0.506-0.225 0.506-0.502v-7.826c0-2.158 1.086-3.203 2.715-3.203z"></path>
<path d="M153.773 32c-2.554 0-4.623-2.057-4.623-4.594v-18.574c0-0.166 0.135-0.301 0.302-0.301h3.875c0.28 0 0.506 0.225 0.506 0.502v1.453c0.781-1.45 2.613-2.293 4.648-2.293 2.105 0 3.904 0.776 5.397 2.293 1.526 1.517 2.273 3.473 2.273 5.867 0 2.462-0.747 4.451-2.273 5.968-1.493 1.517-3.292 2.293-5.397 2.293-2.035 0-3.868-0.877-4.648-2.259v9.584c0 0.033-0.028 0.060-0.060 0.060zM157.599 12.645c-2.035 0-3.665 1.618-3.665 3.81 0 2.293 1.629 3.743 3.665 3.743 2.037 0 3.666-1.551 3.666-3.743 0-2.259-1.629-3.81-3.666-3.81z"></path>
<path d="M17.368 17.29c0.174-0.219 0.489-0.278 0.72-0.119l2.953 2.039c0.225 0.155 0.285 0.461 0.125 0.682-1.986 2.72-5.245 4.397-8.998 4.397-3.135 0-5.758-1.081-7.902-3.274-2.111-2.193-3.167-4.831-3.167-7.947 0-3.147 1.056-5.785 3.167-7.978 2.143-2.193 4.767-3.274 7.902-3.274 3.652 0 6.898 1.64 8.886 4.235 0.169 0.22 0.11 0.533-0.12 0.691l-2.974 2.036c-0.231 0.158-0.545 0.098-0.717-0.122-1.28-1.635-2.972-2.453-5.075-2.453-1.823 0-3.327 0.668-4.543 2.003-1.216 1.303-1.824 2.924-1.824 4.863 0 1.907 0.608 3.528 1.824 4.863 1.216 1.303 2.719 1.971 4.543 1.971 2.096 0 3.947-1.029 5.201-2.612z"></path>
</symbol>
<symbol id="icon-logotype-footer" viewBox="0 0 196 32">
<path d="M57.761 24.312c-2.605 0-4.717-2.098-4.717-4.687v-19.273c0-0.195 0.159-0.352 0.355-0.352h3.857c0.279 0 0.506 0.225 0.506 0.502v23.809z"></path>
<path d="M78.29 23.81c0 0.277-0.226 0.502-0.506 0.502h-3.672c-0.279 0-0.506-0.225-0.506-0.502v-1.285c-0.441 0.674-1.154 1.18-2.104 1.551-0.916 0.371-1.765 0.539-2.511 0.539-2.138 0-4.005-0.742-5.633-2.259s-2.443-3.507-2.443-5.935c0-2.428 0.815-4.384 2.443-5.901s3.495-2.293 5.633-2.293c1.493 0 3.529 0.573 4.615 2.091v-1.251c0-0.277 0.226-0.502 0.506-0.502h3.672c0.279 0 0.506 0.225 0.506 0.502v14.742zM66.989 19.119c0.814 0.708 1.731 1.045 2.783 1.045 2.036 0 3.835-1.484 3.835-3.743s-1.799-3.743-3.835-3.743c-1.052 0-1.968 0.371-2.783 1.079-0.781 0.708-1.188 1.585-1.188 2.664s0.407 1.989 1.188 2.698z"></path>
<path d="M88.614 18.344c1.12 0.303 1.561 0.674 1.561 1.349 0 0.776-0.848 1.281-1.934 1.315-1.042 0-1.944-0.604-2.24-1.349-0.1-0.252-0.317-0.472-0.589-0.472h-3.408c-0.283 0-0.514 0.232-0.485 0.512 0.146 1.42 0.787 2.592 1.971 3.467 1.323 0.978 2.885 1.45 4.615 1.45 1.833 0 3.428-0.438 4.785-1.281 1.392-0.843 2.070-2.057 2.070-3.642 0-0.944-0.136-1.821-1.527-3.136-0.679-0.641-1.595-1.146-2.783-1.45l-2.681-0.708c-0.882-0.236-1.357-0.607-1.391-1.18-0.034-0.708 0.611-1.18 1.663-1.18 0.96 0 1.52 0.308 1.718 0.906 0.085 0.257 0.295 0.476 0.567 0.476h3.443c0.283 0 0.513-0.231 0.488-0.511-0.138-1.529-0.774-2.674-1.907-3.434-1.256-0.843-2.783-1.281-4.581-1.281-1.663 0-3.088 0.472-4.31 1.383s-1.833 1.922-1.867 3.102c-0.034 0.978 0.034 1.517 0.543 2.596 0.543 1.045 2.002 1.956 4.208 2.529l2.070 0.539z"></path>
<path d="M105.579 19.692c0-0.674-0.441-1.045-1.561-1.349l-2.070-0.539c-2.206-0.573-3.665-1.484-4.208-2.529-0.509-1.079-0.577-1.619-0.543-2.596 0.034-1.18 0.645-2.192 1.866-3.102s2.647-1.383 4.31-1.383c1.799 0 3.326 0.438 4.582 1.281 1.133 0.76 1.768 1.905 1.907 3.434 0.025 0.28-0.204 0.511-0.488 0.511h-3.444c-0.271 0-0.482-0.219-0.567-0.476-0.199-0.598-0.76-0.906-1.719-0.906-1.052 0-1.697 0.472-1.663 1.18 0.034 0.573 0.509 0.944 1.391 1.18l2.681 0.708c1.188 0.303 2.104 0.809 2.783 1.45 1.391 1.315 1.527 2.192 1.527 3.136 0 1.585-0.679 2.799-2.070 3.642-1.358 0.843-2.952 1.281-4.786 1.281-1.73 0-3.291-0.472-4.615-1.45-1.184-0.875-1.825-2.047-1.972-3.467-0.028-0.28 0.202-0.512 0.486-0.512h3.407c0.273 0 0.49 0.22 0.59 0.472 0.296 0.745 1.197 1.349 2.24 1.349 1.086-0.034 1.934-0.539 1.934-1.315z"></path>
<path d="M121.032 8.228c-2.342 0-4.377 0.776-6.074 2.293s-2.546 3.473-2.546 5.867 0.849 4.384 2.546 5.935c1.697 1.551 3.733 2.327 6.074 2.327 2.667 0 5.067-1.092 6.587-2.973 0.175-0.215 0.119-0.528-0.108-0.688l-2.994-2.106c-0.235-0.165-0.558-0.099-0.745 0.118-0.665 0.769-1.578 1.164-2.74 1.164-1.052 0-1.968-0.337-2.749-1.045s-1.188-1.619-1.188-2.731c0-1.079 0.408-1.956 1.188-2.63 0.781-0.708 1.697-1.045 2.749-1.045 1.16 0 2.072 0.394 2.737 1.162 0.189 0.218 0.514 0.283 0.749 0.116l2.993-2.132c0.227-0.162 0.28-0.476 0.104-0.69-1.549-1.877-3.947-2.94-6.583-2.94z"></path>
<path d="M147.148 23.776c0 0.277-0.227 0.502-0.506 0.502h-3.672c-0.28 0-0.505-0.225-0.505-0.502v-1.285c-0.441 0.674-1.154 1.18-2.104 1.551-0.916 0.371-1.765 0.539-2.511 0.539-2.138 0-4.005-0.742-5.634-2.259s-2.443-3.507-2.443-5.935c0-2.428 0.815-4.384 2.443-5.901s3.496-2.293 5.634-2.293c1.493 0 3.529 0.573 4.616 2.091v-1.251c0-0.277 0.226-0.502 0.505-0.502h3.672c0.28 0 0.506 0.225 0.506 0.502v14.742zM135.847 19.085c0.815 0.708 1.731 1.045 2.783 1.045 2.037 0 3.835-1.484 3.835-3.743s-1.799-3.743-3.835-3.743c-1.052 0-1.968 0.371-2.783 1.079-0.78 0.708-1.188 1.585-1.188 2.664s0.408 1.989 1.188 2.698z"></path>
<path d="M167.945 12.78c1.494 0 2.614 1.146 2.614 3.136v7.894c0 0.277 0.226 0.502 0.505 0.502h3.672c0.28 0 0.506-0.225 0.506-0.502v-8.433c0-4.687-2.274-7.149-6.109-7.149-2.002 0-3.597 0.944-4.751 2.799-0.882-1.855-2.579-2.765-5.090-2.765-1.765 0-3.428 0.978-4.141 2.596v-1.791c0-0.277-0.226-0.502-0.505-0.502h-3.705c-0.28 0-0.506 0.225-0.506 0.502v14.742c0 0.277 0.227 0.502 0.506 0.502h3.705c0.28 0 0.505-0.225 0.505-0.502v-7.826c0-2.259 1.154-3.203 2.749-3.203 1.46 0 2.58 1.146 2.614 3.035v7.995c0 0.277 0.226 0.502 0.505 0.502h3.705c0.28 0 0.506-0.225 0.506-0.502v-7.826c0-2.158 1.085-3.203 2.714-3.203z"></path>
<path d="M182.989 32c-2.553 0-4.623-2.057-4.623-4.594v-18.574c0-0.166 0.136-0.301 0.303-0.301h3.875c0.279 0 0.505 0.225 0.505 0.502v1.453c0.78-1.45 2.613-2.293 4.649-2.293 2.104 0 3.903 0.776 5.396 2.293 1.528 1.517 2.274 3.473 2.274 5.867 0 2.462-0.746 4.451-2.274 5.968-1.493 1.517-3.292 2.293-5.396 2.293-2.037 0-3.869-0.877-4.649-2.259v9.584c0 0.033-0.027 0.060-0.060 0.060zM186.816 12.645c-2.036 0-3.665 1.619-3.665 3.81 0 2.293 1.629 3.743 3.665 3.743s3.666-1.551 3.666-3.743c0-2.259-1.629-3.81-3.666-3.81z"></path>
<path d="M46.586 17.289c0.174-0.219 0.489-0.278 0.72-0.119l2.952 2.039c0.225 0.155 0.285 0.461 0.125 0.682-1.986 2.72-5.245 4.397-8.998 4.397-3.135 0-5.758-1.081-7.902-3.274-2.111-2.193-3.167-4.832-3.167-7.947 0-3.147 1.056-5.785 3.167-7.978 2.143-2.193 4.767-3.274 7.902-3.274 3.652 0 6.898 1.64 8.886 4.235 0.169 0.22 0.11 0.533-0.12 0.691l-2.974 2.036c-0.231 0.158-0.545 0.098-0.717-0.122-1.28-1.635-2.972-2.453-5.075-2.453-1.824 0-3.327 0.668-4.543 2.003-1.216 1.303-1.824 2.924-1.824 4.863 0 1.907 0.608 3.528 1.824 4.863 1.216 1.303 2.719 1.971 4.543 1.971 2.096 0 3.947-1.029 5.201-2.612z"></path>
<path d="M20.886 5.647l-1.215 2.105c0.715 0.414 1.339 0.65 2.224 0.65v2.433c-1.33 0-2.369-0.356-3.442-0.977l1.215-2.105c-2.147-1.242-4.639-1.953-7.298-1.953s-5.152 0.711-7.299 1.953l-1.217-2.107c2.505-1.449 5.414-2.279 8.516-2.279s6.011 0.83 8.516 2.279z"></path>
<path d="M18.453 9.861c-1.789-1.035-3.867-1.628-6.083-1.628s-4.293 0.593-6.083 1.628l1.217 2.107c1.431-0.828 3.094-1.302 4.866-1.302s3.434 0.474 4.865 1.301l-1.215 2.105c1.789 1.035 3.659 1.628 5.875 1.628v-2.433c-1.772 0-3.226-0.474-4.657-1.302l1.215-2.105z"></path>
<path d="M12.37 13.099c1.33 0 2.576 0.356 3.65 0.977l-1.216 2.105c2.147 1.242 4.432 1.953 7.091 1.953v2.433c-3.102-0-5.804-0.83-8.309-2.279l1.215-2.105c-0.715-0.414-1.546-0.65-2.432-0.65s-1.717 0.237-2.433 0.651l-1.217-2.107c1.074-0.621 2.32-0.977 3.65-0.977z"></path>
<path d="M8.021 22.587h0.002c0.006 0.011 0.011 0.022 0.017 0.033l0.236 0.408c0.866 1.344 2.376 2.235 4.094 2.235h0.006l-10.536-18.249c-0.653 0.515-1.268 1.076-1.839 1.68l8.021 13.893z"></path>
</symbol>
<symbol id="icon-twitter" viewBox="0 0 32 32">
<path d="M11.845 25.405c8.453 0 13.076-7.003 13.076-13.076 0-0.199-0.004-0.397-0.013-0.594 0.897-0.649 1.677-1.458 2.292-2.38-0.823 0.366-1.71 0.612-2.639 0.724 0.949-0.569 1.677-1.469 2.021-2.542-0.888 0.526-1.871 0.909-2.918 1.116-0.839-0.893-2.033-1.452-3.355-1.452-2.538 0-4.596 2.058-4.596 4.595 0 0.361 0.040 0.711 0.119 1.048-3.82-0.192-7.207-2.021-9.473-4.802-0.395 0.679-0.622 1.468-0.622 2.31 0 1.594 0.811 3.002 2.045 3.826-0.754-0.023-1.462-0.23-2.081-0.575-0.001 0.019-0.001 0.038-0.001 0.059 0 2.226 1.584 4.084 3.687 4.505-0.386 0.105-0.792 0.162-1.212 0.162-0.296 0-0.584-0.029-0.864-0.083 0.585 1.826 2.282 3.155 4.293 3.192-1.573 1.233-3.554 1.967-5.708 1.967-0.37 0-0.737-0.021-1.096-0.064 2.034 1.304 4.449 2.064 7.045 2.064z"></path>
</symbol>
<symbol id="icon-instagram" viewBox="0 0 32 32">
<path d="M16.001 4.8c-3.042 0-3.424 0.013-4.618 0.068-1.192 0.055-2.006 0.243-2.718 0.52-0.737 0.286-1.361 0.669-1.984 1.292s-1.006 1.247-1.293 1.984c-0.278 0.712-0.467 1.526-0.52 2.718-0.053 1.195-0.067 1.577-0.067 4.618s0.014 3.422 0.068 4.617c0.055 1.192 0.244 2.006 0.52 2.718 0.286 0.737 0.669 1.362 1.292 1.984s1.247 1.007 1.983 1.293c0.713 0.277 1.527 0.466 2.719 0.52 1.195 0.054 1.576 0.068 4.618 0.068s3.423-0.013 4.617-0.068c1.192-0.055 2.007-0.243 2.72-0.52 0.736-0.286 1.36-0.67 1.983-1.293s1.006-1.247 1.293-1.984c0.275-0.712 0.464-1.526 0.52-2.718 0.054-1.195 0.068-1.575 0.068-4.617s-0.014-3.423-0.068-4.618c-0.056-1.192-0.245-2.006-0.52-2.718-0.287-0.737-0.67-1.361-1.293-1.984s-1.246-1.006-1.983-1.292c-0.714-0.277-1.528-0.466-2.721-0.52-1.195-0.054-1.575-0.068-4.618-0.068h0.004zM14.996 6.818c0.298-0 0.631 0 1.005 0 2.99 0 3.345 0.011 4.526 0.064 1.092 0.050 1.685 0.232 2.080 0.386 0.523 0.203 0.895 0.446 1.287 0.838s0.635 0.765 0.838 1.288c0.153 0.394 0.336 0.987 0.386 2.079 0.054 1.181 0.065 1.535 0.065 4.524s-0.012 3.344-0.065 4.524c-0.050 1.092-0.232 1.685-0.386 2.079-0.203 0.523-0.446 0.895-0.838 1.287s-0.764 0.635-1.287 0.838c-0.394 0.154-0.987 0.336-2.080 0.386-1.181 0.054-1.535 0.065-4.526 0.065s-3.345-0.012-4.526-0.065c-1.092-0.050-1.685-0.233-2.080-0.386-0.523-0.203-0.896-0.446-1.288-0.838s-0.635-0.764-0.838-1.287c-0.153-0.394-0.336-0.987-0.386-2.079-0.054-1.181-0.064-1.535-0.064-4.526s0.011-3.344 0.064-4.524c0.050-1.092 0.232-1.685 0.386-2.080 0.203-0.523 0.446-0.896 0.838-1.288s0.765-0.635 1.288-0.838c0.395-0.154 0.988-0.336 2.080-0.386 1.033-0.047 1.434-0.061 3.521-0.063v0.003zM21.98 8.678c-0.742 0-1.344 0.601-1.344 1.344s0.602 1.344 1.344 1.344 1.344-0.602 1.344-1.344c0-0.742-0.602-1.344-1.344-1.344v0zM16.001 10.248c-3.176 0-5.752 2.575-5.752 5.752s2.575 5.75 5.752 5.75c3.176 0 5.751-2.574 5.751-5.75s-2.575-5.752-5.751-5.752h0zM16.001 12.267c2.062 0 3.733 1.671 3.733 3.733s-1.672 3.733-3.733 3.733c-2.062 0-3.733-1.672-3.733-3.733s1.671-3.733 3.733-3.733z"></path>
</symbol>
<symbol id="icon-youtube" viewBox="0 0 32 32">
<path d="M27.404 8.583c-0.398-0.401-0.892-0.689-1.435-0.837-1.987-0.546-9.982-0.546-9.982-0.546s-7.996 0.017-9.982 0.563c-0.543 0.148-1.037 0.437-1.435 0.837s-0.684 0.899-0.831 1.446c-0.601 3.558-0.834 8.979 0.016 12.395 0.147 0.547 0.433 1.046 0.831 1.446s0.892 0.689 1.435 0.837c1.987 0.546 9.982 0.546 9.982 0.546s7.996 0 9.982-0.546c0.543-0.148 1.037-0.437 1.435-0.837s0.684-0.899 0.831-1.446c0.634-3.563 0.829-8.981-0.016-12.411-0.147-0.547-0.433-1.046-0.831-1.446zM19.812 16.235l-6.024 3.765v-7.529l6.024 3.765z"></path>
</symbol>
<symbol id="close-btn" viewBox="0 0 32 32">
<path d="M32 3.223l-3.223-3.223-12.777 12.777-12.777-12.777-3.223 3.223 12.777 12.777-12.777 12.777 3.223 3.223 12.777-12.777 12.777 12.777 3.223-3.223-12.777-12.777 12.777-12.777z"></path>
</symbol>
</defs>
</svg>
